<svg xmlns="http://www.w3.org/2000/svg" viewBox="0 0 524.57 271.73"><defs><style>.cls-1{fill:#225347;}</style></defs><g id="Livello_2" data-name="Livello 2"><g id="Livello_3" data-name="Livello 3"><path class="cls-1" d="M47.27,57.28s.27.53.36.69c.27.36,1.1,2.39,9.35,4.67,10,2.75,11.82,14.87,11.83,15l0,.27-.26,0a25.53,25.53,0,0,1-9.33-.34,11.41,11.41,0,0,1-7-4.56,32.23,32.23,0,0,1-5-14.66A8.83,8.83,0,0,1,47.27,57.28Zm9.56,5.88c-5.66-1.56-8.24-3.35-9.19-4.41a37.42,37.42,0,0,0,5,14c3.93,6,13.81,4.94,15.57,4.71C67.91,75.67,65.67,65.59,56.83,63.16Z"/><path class="cls-1" d="M117.05,178.7a32.24,32.24,0,0,1-4.58,14.81,11.4,11.4,0,0,1-6.89,4.78,25.48,25.48,0,0,1-9.31.63l-.26,0,0-.27c0-.12,1.46-12.29,11.36-15.36,8.18-2.53,8.94-4.6,9.19-5l.35-.7A10.16,10.16,0,0,1,117.05,178.7ZM96.61,198.42c1.76.17,11.67.88,15.4-5.2,3.15-5.11,4.29-11.52,4.59-14.14-.92,1.09-3.44,3-9,4.69C98.8,186.49,96.88,196.64,96.61,198.42Z"/><path class="cls-1" d="M44,112.85a32.16,32.16,0,0,1-2.11,15.36,11.43,11.43,0,0,1-6,5.84,25.61,25.61,0,0,1-9.09,2.13h-.27v-.27c0-.12-.55-12.37,8.72-17,7.65-3.83,8.07-6,8.26-6.39.06-.17.23-.74.23-.74A8.4,8.4,0,0,1,44,112.85ZM27,135.63c1.77-.12,11.66-1,14.36-7.63,2.28-5.56,2.36-12.07,2.24-14.7-.73,1.23-2.92,3.48-8.17,6.1C27.26,123.5,27,133.82,27,135.63Z"/><path class="cls-1" d="M52.55,131.29l.67.4c.41.17,2.17,1.49,10.41-.8,10-2.78,17.79,6.68,17.87,6.77l.16.21-.2.17a25.39,25.39,0,0,1-8.17,4.51,11.38,11.38,0,0,1-8.38-.3,32.17,32.17,0,0,1-11.86-10A7.69,7.69,0,0,1,52.55,131.29Zm11.23.12c-5.66,1.57-8.79,1.37-10.16,1,1.68,2,6.1,6.81,11.52,9.41,6.43,3.08,14.38-2.87,15.76-4C79.71,136.45,72.61,129,63.78,131.41Z"/><path class="cls-1" d="M2,45s.06.59.08.77c.1.44.08,2.64,6.81,7.92C17.05,60.08,14.05,72,14,72.08l-.07.26-.25-.06a25.62,25.62,0,0,1-8.48-3.92A11.43,11.43,0,0,1,.5,61.43,32.2,32.2,0,0,1,1.52,46,9,9,0,0,1,2,45ZM8.57,54.1C4,50.47,2.27,47.82,1.8,46.47,1.15,49-.08,55.42,1,61.33c1.32,7,10.82,9.89,12.53,10.36C13.94,69.93,15.78,59.76,8.57,54.1Z"/><path class="cls-1" d="M74,100.58a32.3,32.3,0,0,1,9.08,12.57,11.46,11.46,0,0,1-.33,8.38,25.81,25.81,0,0,1-5.1,7.82l-.19.19-.19-.18c-.09-.09-8.94-8.57-5.43-18.32,2.89-8.06,1.7-9.91,1.56-10.33L73,100A9,9,0,0,1,74,100.58Zm3.45,28.19c1.2-1.3,7.73-8.79,5.12-15.43C80.36,107.75,75.93,103,74,101.16c.32,1.4.29,4.53-1.7,10.06C69.22,119.84,76.17,127.48,77.43,128.77Z"/><path class="cls-1" d="M49.44,179.06a32.2,32.2,0,0,1,.05,15.5,11.43,11.43,0,0,1-5.15,6.63,25.49,25.49,0,0,1-8.7,3.37l-.26.05-.05-.26c0-.12-2.28-12.17,6.26-18,7-4.86,7.16-7.05,7.29-7.48,0-.18.12-.77.12-.77A8.75,8.75,0,0,1,49.44,179.06ZM35.81,204c1.74-.35,11.4-2.64,13.16-9.55,1.48-5.82.65-12.28.16-14.87-.55,1.32-2.4,3.85-7.24,7.18C34.35,191.94,35.54,202.2,35.81,204Z"/><path class="cls-1" d="M54.55,213.55A32.25,32.25,0,0,1,53.7,229a11.44,11.44,0,0,1-5.53,6.32,25.86,25.86,0,0,1-8.88,2.87l-.26,0,0-.27c0-.12-1.56-12.28,7.3-17.66,7.31-4.43,7.55-6.62,7.71-7l.17-.76A9.83,9.83,0,0,1,54.55,213.55Zm-15,24.08c1.75-.25,11.53-2,13.68-8.77,1.82-5.73,1.37-12.22,1-14.84-.63,1.29-2.62,3.71-7.64,6.76C38.73,225.53,39.33,235.84,39.5,237.63Z"/><path class="cls-1" d="M7.43,125.68s.14.58.19.76c.16.41.45,2.59,7.87,6.87,9,5.18,7.69,17.37,7.68,17.49l0,.27-.26,0a25.26,25.26,0,0,1-8.95-2.67,11.45,11.45,0,0,1-5.66-6.19,32.09,32.09,0,0,1-1.19-15.45A8.79,8.79,0,0,1,7.43,125.68Zm7.79,8.1c-5.09-2.94-7.14-5.31-7.8-6.58-.28,2.62-.58,9.12,1.36,14.81,2.3,6.75,12.12,8.25,13.88,8.47C22.79,148.68,23.15,138.36,15.22,133.78Z"/><path class="cls-1" d="M73.35,151.74s.32.5.43.65c.29.33,1.29,2.29,9.71,3.83,10.2,1.87,13.08,13.79,13.11,13.91l.06.25-.26.07a25.49,25.49,0,0,1-9.32.48A11.39,11.39,0,0,1,79.67,167a32.31,32.31,0,0,1-6.31-14.16A10.06,10.06,0,0,1,73.35,151.74Zm10,5c-5.77-1.05-8.5-2.61-9.54-3.58a37.55,37.55,0,0,0,6.24,13.5c4.43,5.58,14.19,3.7,15.92,3.32C95.52,168.25,92.41,158.41,83.39,156.75Z"/><path class="cls-1" d="M74.83,205.81s0,.59,0,.77c0,.45-.35,2.61,5.42,8.93,7,7.66,2.08,18.89,2,19l-.1.24-.25-.1a25.74,25.74,0,0,1-7.71-5.25,11.46,11.46,0,0,1-3.53-7.62,32.25,32.25,0,0,1,3.55-15.09A8.76,8.76,0,0,1,74.83,205.81Zm5,10.07c-4-4.34-5.19-7.23-5.43-8.63a37.45,37.45,0,0,0-3.2,14.52c.15,7.13,9.06,11.54,10.67,12.27C82.5,232.37,86,222.64,79.8,215.88Z"/><path class="cls-1" d="M9.18,165.22s.26.53.35.69c.25.37,1,2.44,9.17,5C28.58,174,30,186.2,30,186.32l0,.26-.26,0a25.44,25.44,0,0,1-9.31-.67,11.41,11.41,0,0,1-6.87-4.81,32.22,32.22,0,0,1-4.52-14.83A10.17,10.17,0,0,1,9.18,165.22Zm9.36,6.21c-5.61-1.76-8.12-3.64-9-4.74.3,2.63,1.41,9,4.54,14.17,3.71,6.09,13.62,5.42,15.38,5.25C29.16,184.33,27.28,174.17,18.54,171.43Z"/><ellipse class="cls-1" cx="48.37" cy="17.88" rx="18.04" ry="12.26" transform="translate(22.14 62.28) rotate(-79.72)"/><path class="cls-1" d="M71.17,67.75s-5.59-15,4.61-21.41c7.75-4.84,6.38-9.08,6.38-9.08S90.43,61.24,71.17,67.75Z"/><path class="cls-1" d="M29.76,170.6s-4.83-15.31,5.68-21.16c8-4.44,6.83-8.74,6.83-8.74S49.32,165.06,29.76,170.6Z"/><path class="cls-1" d="M59.24,110.44s4.83-15.31-5.68-21.16c-8-4.44-6.83-8.74-6.83-8.74S39.68,104.9,59.24,110.44Z"/><path class="cls-1" d="M91.18,206.54S96,191.23,85.5,185.38c-8-4.44-6.83-8.74-6.83-8.74S71.62,201,91.18,206.54Z"/><path class="cls-1" d="M35,225.65s1.51-16-10-19.5c-8.74-2.68-8.51-7.12-8.51-7.12S14.69,224.32,35,225.65Z"/><path class="cls-1" d="M26.27,114.51s-2-15.93-14-16.87c-9.11-.71-9.85-5.1-9.85-5.1S6.18,117.62,26.27,114.51Z"/><path class="cls-1" d="M92.58,152.53s-7.19-14.35,2.26-21.79c7.18-5.65,5.35-9.71,5.35-9.71S111,144,92.58,152.53Z"/><path class="cls-1" d="M19.67,92.54s-5.31-15.15,5-21.33c7.84-4.7,6.54-9,6.54-9S39,86.37,19.67,92.54Z"/><path class="cls-1" d="M99.85,177.6s-2.83-15.8,8.34-20.26c8.49-3.38,7.89-7.8,7.89-7.8S120,174.6,99.85,177.6Z"/><path class="cls-1" d="M89,223.91s4.39-15.44,16.38-14.55c9.12.68,10.51-3.55,10.51-3.55S108.36,230,89,223.91Z"/><path class="cls-1" d="M75.23,261.24h-4l1.29-3.09c13.41-32.55,21.26-57.88,23.32-75.3,3.63-30.63-21.84-54.17-33-62.87l-.15-.11c-7.45-5.84-1.9-19.31,2.16-29.15a48,48,0,0,0,2.64-7.29L67.6,83c1-6.24,3.55-22.84-13.19-34l-1.53-1,2-3,1.53,1C75.14,58.43,72.2,77.37,71.23,83.59l-.06.4a45.31,45.31,0,0,1-2.88,8.13c-3.4,8.26-8.54,20.74-3.28,24.86l.14.11c11.61,9.08,38.2,33.7,34.35,66.19-2.1,17.75-10,43.41-23.58,76.27Z"/><path class="cls-1" d="M36.83,271.73l0-2.16c-.66-30.15-1.29-58.63-11-102.36-5.72-25.77-2.05-38-.47-43.17.22-.73.39-1.31.46-1.68.69-3.76.28-19.94-8.78-29-5.23-5.23-5.25-17.77-.06-37.27,1.76-7.93,10-12.46,10.33-12.65l1.62-.87,1.75,3.24L29,46.68c-.18.1-7.12,4-8.51,10.29-4.64,17.44-5,29.74-.91,33.8,10,10,10.69,27.4,9.79,32.27-.11.58-.31,1.23-.56,2.06-1.48,4.93-5,16.48.55,41.32,9.8,44.08,10.43,72.74,11.09,103.07l0,2.24Z"/><path class="cls-1" d="M168.71,68.33h10.46V106h17v9.15H168.71Z"/><path class="cls-1" d="M228.92,68.33h10.43V97.09a21.11,21.11,0,0,1-2.25,10,15.85,15.85,0,0,1-6.47,6.56,23.06,23.06,0,0,1-20.16,0,15.89,15.89,0,0,1-6.51-6.56,20.88,20.88,0,0,1-2.27-10V68.33h10.42V96.52a12.75,12.75,0,0,0,1,5.48,7.53,7.53,0,0,0,2.93,3.35,9.26,9.26,0,0,0,8.9,0,7.42,7.42,0,0,0,2.9-3.35,12.92,12.92,0,0,0,1-5.48Z"/><path class="cls-1" d="M271.62,105.63a18.73,18.73,0,0,0,10-2.83l4.47,8.86a19.13,19.13,0,0,1-5.68,2.88,28.24,28.24,0,0,1-9.54,1.45,25.87,25.87,0,0,1-9.71-1.81,24.76,24.76,0,0,1-8-5.09,24.26,24.26,0,0,1-5.42-26.91,23.35,23.35,0,0,1,5.39-7.75,24.86,24.86,0,0,1,8-5.13,26.06,26.06,0,0,1,9.73-1.82,28,28,0,0,1,9.54,1.45,19.4,19.4,0,0,1,5.68,2.87l-4.47,8.87a17.27,17.27,0,0,0-4-1.88,17.71,17.71,0,0,0-6-1A16.45,16.45,0,0,0,265.29,79,12.64,12.64,0,0,0,260.75,82,13.09,13.09,0,0,0,258,86.48,15.7,15.7,0,0,0,258,97a12.72,12.72,0,0,0,7.27,7.56A16.65,16.65,0,0,0,271.62,105.63Z"/><path class="cls-1" d="M307.72,68.33h10.39l18.44,46.81H325.42L322,105.67H303.93l-3.51,9.47H289.24Zm-.35,28.19H318.5L313,80.92h-.1Z"/><path class="cls-1" d="M344.53,77.48H333.36V68.33H366.2v9.15H355v37.66H344.53Z"/><path class="cls-1" d="M371.94,68.33h29.83v9.15h-19.4v9.75h19.18v8.9H382.37V106h19.4v9.15H371.94Z"/><path class="cls-1" d="M410.13,68.33H420.6V106h17v9.15H410.13Z"/><path class="cls-1" d="M444.82,68.33h10.46V106h17v9.15H444.82Z"/><path class="cls-1" d="M476.56,91.7a24.75,24.75,0,0,1,1.81-9.52,23.35,23.35,0,0,1,12.71-12.86,25.55,25.55,0,0,1,19,0,23.14,23.14,0,0,1,12.66,12.86,24.93,24.93,0,0,1,1.79,9.52,25.58,25.58,0,0,1-1.75,9.55,23.42,23.42,0,0,1-5,7.74,22.66,22.66,0,0,1-7.6,5.16,25,25,0,0,1-9.68,1.84,25.23,25.23,0,0,1-9.79-1.84,22.51,22.51,0,0,1-7.59-5.16,23,23,0,0,1-4.91-7.74A26,26,0,0,1,476.56,91.7Zm10.88,0A16,16,0,0,0,489.11,99a13.14,13.14,0,0,0,4.63,5.21,13.08,13.08,0,0,0,13.71,0A13.32,13.32,0,0,0,512.06,99a16.95,16.95,0,0,0,0-14.63,13.61,13.61,0,0,0-4.61-5.21,13,13,0,0,0-13.71,0,13.41,13.41,0,0,0-4.63,5.21A15.86,15.86,0,0,0,487.44,91.7Z"/><path class="cls-1" d="M169.3,141.66h11.56a24.74,24.74,0,0,1,7.09,1,11,11,0,0,1,5.41,3.42,10.18,10.18,0,0,1,2.08,6.83,12.67,12.67,0,0,1-1.19,5.53,12.36,12.36,0,0,1-2.91,4,6.16,6.16,0,0,1-3.21,1.7,8.66,8.66,0,0,1,2.8.78,12.31,12.31,0,0,1,3.21,2.09,11.52,11.52,0,0,1,2.63,3.46,10.87,10.87,0,0,1,1,4.91,15,15,0,0,1-1.47,6.76,10.59,10.59,0,0,1-4.54,4.64,16.29,16.29,0,0,1-7.92,1.69H169.3Zm3.83,21.24h9.58a8.26,8.26,0,0,0,5-1.44,8.7,8.7,0,0,0,2.93-3.61,10.77,10.77,0,0,0,1-4.35q0-4.65-2.77-6.52a12.85,12.85,0,0,0-7.38-1.88h-8.33Zm0,22.13h11.06a10.62,10.62,0,0,0,6-1.42,7.38,7.38,0,0,0,2.89-3.63,13.43,13.43,0,0,0,.8-4.56,8.82,8.82,0,0,0-2.63-6.54q-2.62-2.61-7.66-2.61H173.13Z"/><path class="cls-1" d="M218.83,189.32a14.48,14.48,0,0,1-13-7.55,15.71,15.71,0,0,1-1.93-7.77,16,16,0,0,1,1.93-7.82,14.86,14.86,0,0,1,5.3-5.6,15.39,15.39,0,0,1,15.45,0,14.68,14.68,0,0,1,5.26,5.6,16.09,16.09,0,0,1,1.92,7.82,15.81,15.81,0,0,1-1.92,7.77,14.36,14.36,0,0,1-13,7.55Zm0-3.58a10.77,10.77,0,0,0,5.82-1.55,10.6,10.6,0,0,0,3.87-4.2,12.8,12.8,0,0,0,1.38-6,13.17,13.17,0,0,0-1.38-6.05,10.86,10.86,0,0,0-3.87-4.29A10.86,10.86,0,0,0,209.12,168a13,13,0,0,0-1.39,6.05,12.69,12.69,0,0,0,1.39,6,10.42,10.42,0,0,0,3.88,4.2A10.87,10.87,0,0,0,218.83,185.74Z"/><path class="cls-1" d="M265.68,188.47v-6.1a6.69,6.69,0,0,1-1.79,2.75,14.06,14.06,0,0,1-4.15,2.92,13.36,13.36,0,0,1-5.94,1.28,14.07,14.07,0,0,1-7.15-1.83,13.26,13.26,0,0,1-5.05-5.28,19.17,19.17,0,0,1,0-16.56,13.38,13.38,0,0,1,5.05-5.3,14,14,0,0,1,7.15-1.85,13.78,13.78,0,0,1,6,1.24,13.42,13.42,0,0,1,4.1,2.88,5.88,5.88,0,0,1,1.68,2.8V139.67h4v48.8Zm-20.51-8.18a10.58,10.58,0,0,0,3.88,4.12,10,10,0,0,0,5.21,1.43,11.22,11.22,0,0,0,5.66-1.47,11.08,11.08,0,0,0,4.11-4.13,13.7,13.7,0,0,0,0-12.62,11.1,11.1,0,0,0-9.77-5.64,9.9,9.9,0,0,0-5.21,1.45,10.74,10.74,0,0,0-3.88,4.13,14.43,14.43,0,0,0,0,12.73Z"/><path class="cls-1" d="M288.58,184.64l10.75-25.29h4.07l-19.46,43.87h-4.08l6.56-14.75-11.95-29.12h4.15Z"/><path class="cls-1" d="M327.16,177.19a11.2,11.2,0,0,1,1.17-5.21,14.11,14.11,0,0,1,3-3.92,20,20,0,0,1,3.76-2.75,30.24,30.24,0,0,1,3.64-1.75c1.11-.44,1.95-.75,2.52-.94a15,15,0,0,1-1.6-1.64,25.16,25.16,0,0,1-2.09-2.8,20,20,0,0,1-1.83-3.54,10.58,10.58,0,0,1-.76-3.87,8.79,8.79,0,0,1,1.54-5.07,10.64,10.64,0,0,1,4.21-3.58,13.35,13.35,0,0,1,6-1.31,12.9,12.9,0,0,1,6,1.29,9.56,9.56,0,0,1,3.88,3.56,9.73,9.73,0,0,1,1.38,5.15,10.27,10.27,0,0,1-1.4,5.48,14.08,14.08,0,0,1-3.36,3.81,22.55,22.55,0,0,1-3.76,2.39c-1.2.58-2.06,1-2.57,1.19l11.63,12.8c.54-.61,1.27-1.55,2.18-2.82a33.7,33.7,0,0,0,2.57-4.2l2.7,2.16a17.88,17.88,0,0,1-1.25,2.22c-.59.93-1.23,1.86-1.93,2.78a26.28,26.28,0,0,1-1.82,2.2l9,9.65H364.9l-6.71-7.27a34.89,34.89,0,0,1-4.46,3.79,24.57,24.57,0,0,1-5.86,3.11,20.54,20.54,0,0,1-7.23,1.22,15.31,15.31,0,0,1-7-1.54,11.44,11.44,0,0,1-6.46-10.59Zm16.21-12c-.45.12-1.15.35-2.11.71a25.89,25.89,0,0,0-3.14,1.43,18.2,18.2,0,0,0-3.28,2.27,11.69,11.69,0,0,0-2.59,3.21,8.63,8.63,0,0,0-1,4.19,8.21,8.21,0,0,0,1.37,4.82,8.51,8.51,0,0,0,3.58,2.94,11.5,11.5,0,0,0,4.8,1,16.3,16.3,0,0,0,6-1.14,24.59,24.59,0,0,0,5.19-2.76,22.39,22.39,0,0,0,3.69-3.16Zm3.23-21a8.6,8.6,0,0,0-4.28,1,7,7,0,0,0-2.67,2.54,6,6,0,0,0-.93,3.14,8,8,0,0,0,.86,3.45,20,20,0,0,0,2,3.36,28.88,28.88,0,0,0,2.08,2.57l1.08,1.15a19.29,19.29,0,0,0,2.48-1,15.71,15.71,0,0,0,3.24-2,11.13,11.13,0,0,0,2.79-3.14,8.42,8.42,0,0,0,1.13-4.46,6,6,0,0,0-2.18-4.75A8.12,8.12,0,0,0,346.6,144.14Z"/><path class="cls-1" d="M434.3,141.66v46.81h-3.87V151.69l.25-3.9-1,4.12-12.94,34.47h-3.87L399.9,151.91l-1-4.12.21,3.9v36.78h-3.86V141.66H400l14.4,39.43.35,1.7.36-1.7,14.43-39.43Z"/><path class="cls-1" d="M446.51,147.47a3.07,3.07,0,0,1-3.05-3.05,3,3,0,0,1,.9-2.18,3,3,0,0,1,2.15-.9,3,3,0,0,1,1.56.42,3.56,3.56,0,0,1,1.15,1.1,2.74,2.74,0,0,1,.44,1.56,2.88,2.88,0,0,1-.92,2.15A3.07,3.07,0,0,1,446.51,147.47Zm-2,41V159.35h3.93v29.12Z"/><path class="cls-1" d="M472,158.5a12.88,12.88,0,0,1,5.35,1.19,10.07,10.07,0,0,1,4.31,3.74,12,12,0,0,1,1.68,6.67v18.37h-4V171.06c0-3.29-.77-5.65-2.29-7.08a8.19,8.19,0,0,0-5.83-2.14,8.48,8.48,0,0,0-4.54,1.36,10.76,10.76,0,0,0-3.6,3.71,10,10,0,0,0-1.4,5.28v16.28h-3.94V159.35h3.94V165a5.82,5.82,0,0,1,1.68-2.78,12.67,12.67,0,0,1,3.69-2.61A11.16,11.16,0,0,1,472,158.5Z"/><path class="cls-1" d="M516.57,188.47v-6.1a6.91,6.91,0,0,1-1.79,2.75,14.19,14.19,0,0,1-4.15,2.92,13.36,13.36,0,0,1-5.94,1.28,14.07,14.07,0,0,1-7.15-1.83,13.19,13.19,0,0,1-5.05-5.28,19.17,19.17,0,0,1,0-16.56,13.31,13.31,0,0,1,5.05-5.3,14,14,0,0,1,7.15-1.85,13.81,13.81,0,0,1,6,1.24,13.42,13.42,0,0,1,4.1,2.88,5.88,5.88,0,0,1,1.68,2.8V139.67h4v48.8Zm-20.52-8.18a10.6,10.6,0,0,0,3.89,4.12,9.94,9.94,0,0,0,5.21,1.43,11.18,11.18,0,0,0,5.65-1.47,11,11,0,0,0,4.12-4.13,13.7,13.7,0,0,0,0-12.62,11.14,11.14,0,0,0-9.77-5.64,9.87,9.87,0,0,0-5.21,1.45,10.77,10.77,0,0,0-3.89,4.13,14.52,14.52,0,0,0,0,12.73Z"/></g></g></svg>